<?xml version="1.0" standalone="no"?>
<!DOCTYPE svg PUBLIC "-//W3C//DTD SVG 20010904//EN"
 "http://www.w3.org/TR/2001/REC-SVG-20010904/DTD/svg10.dtd">
<svg version="1.0" xmlns="http://www.w3.org/2000/svg"
 width="1024.000000pt" height="1024.000000pt" viewBox="0 0 1024.000000 1024.000000"
 preserveAspectRatio="xMidYMid meet">

<g transform="translate(0.000000,1024.000000) scale(0.100000,-0.100000)"
fill="#000000" stroke="none">
<path d="M0 5120 l0 -5120 5120 0 5120 0 0 5120 0 5120 -5120 0 -5120 0 0
-5120z m4224 2021 c94 -20 114 -26 105 -35 -2 -2 -72 -15 -154 -29 -189 -32
-291 -64 -425 -133 -261 -133 -477 -354 -605 -619 -102 -210 -134 -343 -142
-595 -5 -150 -2 -193 16 -299 76 -448 335 -846 716 -1106 39 -26 73 -57 77
-69 11 -36 9 -174 -3 -182 -7 -4 -10 4 -9 22 5 78 -1 174 -11 174 -6 0 -9 -7
-5 -15 3 -8 0 -14 -5 -12 -7 1 -11 -30 -12 -88 l-1 -90 -3 77 -4 77 -86 57
c-197 131 -343 277 -475 473 -234 350 -308 664 -308 1306 0 216 9 296 46 402
24 69 24 76 10 92 -20 22 -23 78 -7 109 13 25 60 52 90 52 11 0 33 -12 50 -26
26 -21 31 -33 31 -68 0 -44 -18 -70 -68 -95 -51 -27 -86 -158 -102 -379 -11
-147 -8 -207 5 -126 15 93 60 227 110 331 142 297 360 524 659 685 l91 49 -93
-5 c-334 -21 -710 -176 -992 -411 -211 -176 -369 -381 -495 -640 -210 -432
-258 -938 -134 -1422 48 -190 135 -399 223 -538 49 -76 50 -79 39 -72 -32 20
-165 280 -218 427 -21 58 -42 110 -47 115 -5 6 -4 -3 1 -18 14 -36 14 -37 -3
-37 -7 0 -20 8 -27 17 -12 15 -12 16 4 10 9 -3 17 -2 17 3 0 6 -6 10 -13 10
-8 0 -19 10 -25 23 -11 20 -11 19 -6 -8 28 -141 149 -415 251 -567 171 -254
402 -481 631 -621 477 -289 1030 -366 1552 -216 241 69 480 192 697 356 26 20
39 26 29 14 -32 -35 -263 -186 -369 -240 -383 -195 -830 -262 -1237 -186 -615
115 -1154 532 -1437 1110 -244 500 -282 1110 -103 1647 235 704 844 1221 1558
1323 143 21 485 13 616 -14z m-1482 -821 c27 -27 30 -36 25 -73 -4 -32 -14
-49 -41 -72 l-36 -30 0 -387 0 -386 -60 -54 c-56 -52 -59 -56 -53 -91 12 -75
-64 -125 -136 -89 -87 43 -52 167 45 161 36 -3 47 3 97 46 l57 49 0 378 c0
366 -1 378 -20 388 -25 13 -50 61 -50 96 0 16 12 38 34 60 46 46 94 47 138 4z
m1635 -445 c2 -236 3 -451 3 -477 l0 -48 260 0 260 0 0 -95 0 -95 -360 0 -360
0 0 574 0 573 98 -1 97 -1 2 -430z m865 10 c3 -461 5 -473 64 -512 41 -26 296
-27 337 0 63 41 62 29 65 502 l3 431 95 1 95 1 -3 -471 -3 -472 -26 -56 c-19
-40 -40 -65 -71 -87 -74 -51 -141 -64 -317 -64 -266 1 -352 42 -411 192 -11
27 -15 135 -18 497 l-3 463 95 -2 95 -2 3 -421z m1101 406 c8 -9 65 -101 127
-206 175 -292 361 -595 366 -595 3 0 4 183 3 408 l-1 407 96 1 96 2 0 -574 0
-574 -113 0 -112 0 -199 320 c-109 176 -218 351 -242 388 l-44 67 0 -387 0
-388 -100 0 -100 0 0 573 0 573 105 1 c84 0 107 -3 118 -16z m1609 -333 c66
-188 155 -445 198 -570 l78 -228 -112 0 -112 0 -40 123 -39 122 -221 3 -222 2
-6 -27 c-4 -16 -21 -72 -37 -125 l-30 -98 -110 0 c-101 0 -110 2 -105 18 62
193 195 603 270 832 l96 295 137 -2 136 -1 119 -344z m-5440 -31 c35 -44 14
-132 -36 -155 -25 -11 -26 -15 -26 -96 0 -96 6 -86 -107 -179 l-63 -50 0 -422
0 -422 270 -267 c245 -243 269 -269 253 -281 -21 -16 -24 -14 -349 307 l-222
217 -3 443 -4 442 83 69 82 69 0 76 c0 74 0 75 -37 107 -34 29 -38 38 -38 78
0 53 30 92 79 106 38 10 93 -10 118 -42z m326 -712 c51 -42 48 -112 -6 -152
l-27 -20 2 -237 2 -238 59 -66 c32 -37 104 -120 160 -185 l101 -118 -6 -157
c-3 -86 -7 -159 -9 -161 -2 -2 -4 57 -4 132 l0 137 -180 204 -180 205 0 240 0
239 -35 35 c-46 46 -48 95 -6 138 38 38 87 39 129 4z m-319 -269 c70 -37 64
-158 -9 -181 -18 -6 -20 -15 -20 -78 l1 -72 253 -259 252 -259 -15 -32 c-13
-25 -17 -29 -23 -16 -4 9 -122 135 -262 281 l-256 265 0 78 c0 76 -1 78 -35
108 -30 26 -35 38 -35 73 0 85 74 130 149 92z m2254 -268 c-1 -78 -2 -232 -2
-340 l-1 -198 -60 0 -60 0 0 145 0 145 -165 0 -165 0 0 -145 0 -146 -62 3 -63
3 -3 338 -2 337 65 0 65 0 0 -135 0 -135 165 0 165 0 0 135 0 134 58 3 c31 2
59 2 62 1 3 0 4 -66 3 -145z m1724 121 c51 -27 96 -87 108 -146 l7 -33 -75 0
-74 0 -7 30 c-8 43 -53 60 -161 60 -165 0 -186 -26 -184 -227 1 -70 4 -139 8
-153 17 -60 116 -90 234 -72 80 12 117 39 117 84 l0 28 70 0 c66 0 70 -1 70
-22 0 -74 -44 -144 -114 -181 -37 -20 -55 -22 -196 -22 -141 0 -159 2 -196 22
-50 27 -88 70 -106 120 -18 52 -18 344 0 396 26 71 84 121 162 138 19 4 92 7
162 5 112 -2 132 -6 175 -27z m513 -320 l0 -339 -65 0 -65 0 0 343 0 342 65
-3 65 -4 0 -339z m1153 322 c49 -24 80 -65 90 -118 l7 -33 -65 0 c-51 0 -65 3
-65 15 0 33 -48 49 -149 48 -131 0 -171 -21 -171 -89 0 -37 34 -51 187 -77
208 -36 258 -71 270 -190 7 -70 -9 -118 -53 -156 -54 -48 -125 -64 -268 -59
-105 3 -128 6 -171 28 -53 26 -95 83 -95 128 0 22 3 23 60 20 47 -2 61 -7 66
-21 9 -29 44 -40 139 -44 113 -5 174 11 194 51 16 34 4 67 -32 90 -13 9 -80
24 -150 35 -145 22 -210 48 -244 100 -48 72 -42 170 13 231 53 59 98 70 270
66 101 -2 129 -6 167 -25z m-2571 -304 c71 -177 131 -330 134 -339 5 -16 -1
-18 -57 -18 l-64 0 -30 78 -31 77 -164 3 -165 2 -30 -77 -31 -78 -62 -3 c-34
-2 -62 1 -62 6 0 7 204 529 257 660 4 8 32 12 92 12 l86 0 127 -323z m1861
309 c-4 -8 -66 -80 -138 -161 -71 -81 -132 -151 -134 -157 -2 -5 21 -35 51
-67 111 -114 228 -251 228 -266 0 -12 -14 -15 -67 -15 l-68 0 -150 169 c-82
93 -151 173 -152 178 -2 6 62 83 143 171 l147 162 74 0 c60 0 73 -3 66 -14z
m-4367 -32 c29 -36 35 -72 19 -110 l-13 -31 109 -117 c64 -69 106 -122 102
-129 -3 -7 -2 -9 2 -4 11 10 66 -43 58 -56 -3 -6 -1 -7 6 -3 6 4 32 -13 63
-42 l51 -49 5 -129 4 -129 62 -65 61 -65 -66 63 -66 63 -6 126 c-5 97 -10 129
-23 144 -9 10 -19 17 -23 16 -3 -1 -6 1 -6 4 0 16 -40 49 -59 49 -17 0 -11
-10 32 -53 l52 -53 0 -122 c0 -119 1 -122 28 -150 15 -16 113 -113 218 -216
105 -102 189 -186 185 -185 -3 0 -103 95 -223 212 l-216 212 -6 123 -6 123
-192 200 c-190 196 -194 199 -235 199 -73 0 -120 65 -101 138 19 73 137 96
184 36z m51 -756 c-2 -18 -4 -6 -4 27 0 33 2 48 4 33 2 -15 2 -42 0 -60z m883
-155 c54 -58 54 -57 -15 8 -39 36 -99 94 -135 129 -64 62 -64 62 15 -8 44 -39
105 -97 135 -129z m22 -69 c26 -22 47 -43 47 -48 1 -9 -25 14 -206 183 -62 57
-113 107 -113 111 0 4 51 -41 113 -100 61 -59 133 -125 159 -146z m-1055 84
c-2 -29 -3 -6 -3 52 0 58 1 81 3 53 2 -29 2 -77 0 -105z m-582 51 c20 -28 32
-48 26 -45 -12 8 -74 96 -67 96 2 0 21 -23 41 -51z m742 -36 c-2 -16 -4 -3 -4
27 0 30 2 43 4 28 2 -16 2 -40 0 -55z m-190 -125 c-2 -29 -3 -8 -3 47 0 55 1
79 3 53 2 -26 2 -71 0 -100z m2583 129 c0 -9 -52 -72 -59 -72 -5 0 -49 -35
-98 -79 -67 -60 -60 -51 32 38 116 112 125 120 125 113z m-2225 -32 c-48 -17
-65 -38 -65 -82 0 -24 8 -42 28 -60 22 -21 23 -24 5 -14 -40 21 -56 79 -33
121 13 23 57 49 85 49 11 0 2 -6 -20 -14z m-751 -130 c92 -104 93 -105 16 -25
-45 47 -95 103 -112 125 -43 55 -18 29 96 -100z m553 88 c-3 -10 -5 -2 -5 17
0 19 2 27 5 18 2 -10 2 -26 0 -35z m283 22 c35 -37 32 -88 -5 -123 l-29 -27
23 27 c34 39 33 94 -3 124 -15 13 -23 24 -18 24 5 0 19 -11 32 -25z m-243
-247 c-1 -51 -3 -12 -3 87 0 99 2 141 3 93 2 -48 2 -129 0 -180z m215 225 c10
-9 18 -23 18 -32 0 -27 -30 -61 -52 -61 -23 0 -58 26 -58 44 0 6 7 0 16 -12
21 -31 61 -29 76 4 24 52 -43 89 -76 42 -9 -12 -16 -18 -16 -14 0 18 33 46 53
46 11 0 29 -7 39 -17z m383 -103 c60 -60 107 -110 105 -110 -3 0 -55 50 -115
110 -60 61 -107 110 -105 110 3 0 55 -49 115 -110z m924 74 c12 -15 21 -36 20
-48 -1 -15 -3 -12 -10 10 -13 44 -32 58 -71 49 -18 -4 -87 -8 -153 -10 l-120
-2 122 6 c67 3 125 9 129 14 17 17 63 6 83 -19z m-494 -7 l80 -3 -81 -2 c-67
-2 -84 1 -95 16 -12 15 -12 16 1 5 9 -7 52 -14 95 -16z m1264 -22 c-18 -25
-41 -53 -52 -62 -11 -10 2 10 28 45 56 72 72 83 24 17z m-2447 -107 c2 -42 0
-74 -4 -71 -5 2 -7 52 -6 111 1 110 6 95 10 -40z m115 -5 c-2 -27 -3 -5 -3 47
0 52 1 74 3 48 2 -27 2 -69 0 -95z m1180 131 c-3 -3 -12 -4 -19 -1 -8 3 -5 6
6 6 11 1 17 -2 13 -5z m306 -9 c-3 -9 -8 -14 -10 -11 -3 3 -2 9 2 15 9 16 15
13 8 -4z m66 -24 c-2 -6 -10 2 -17 17 -11 25 -11 25 4 10 9 -9 15 -21 13 -27z
m-166 2 c-35 -2 -91 -2 -125 0 -35 2 -7 3 62 3 69 0 97 -1 63 -3z m101 -19 c3
-8 2 -12 -4 -9 -6 3 -10 10 -10 16 0 14 7 11 14 -7z m-13 -31 c13 -16 12 -17
-3 -4 -17 13 -22 21 -14 21 2 0 10 -8 17 -17z m99 13 c0 -2 -8 -10 -17 -17
-16 -13 -17 -12 -4 4 13 16 21 21 21 13z m-1262 -261 l107 -110 80 -6 80 -5
-78 -2 -79 -2 -114 118 -113 117 1 65 2 65 3 -65 4 -64 107 -111z m-71 168
c-2 -16 -4 -5 -4 22 0 28 2 40 4 28 2 -13 2 -35 0 -50z m1280 61 c-3 -3 -12
-4 -19 -1 -8 3 -5 6 6 6 11 1 17 -2 13 -5z m743 -7 c0 -1 -37 -38 -82 -82
l-83 -80 80 83 c74 76 85 87 85 79z m-90 -11 c0 -2 -8 -10 -17 -17 -16 -13
-17 -12 -4 4 13 16 21 21 21 13z m-272 -53 c2 -16 -12 -28 -68 -57 -38 -20
-70 -35 -70 -32 0 3 27 19 60 36 64 32 83 55 59 72 -12 8 -11 9 1 5 8 -2 16
-13 18 -24z m-2312 -15 l29 -33 -32 29 c-31 28 -38 36 -30 36 2 0 16 -15 33
-32z m277 -28 c17 0 19 -2 7 -10 -20 -13 -40 7 -39 39 l2 26 4 -27 c3 -21 10
-28 26 -28z m2247 46 c0 -2 -8 -10 -17 -17 -16 -13 -17 -12 -4 4 13 16 21 21
21 13z m-300 -21 c0 -2 -13 -11 -30 -20 -38 -19 -40 -11 -2 9 31 17 32 18 32
11z m-1505 -75 c38 -38 67 -70 64 -70 -2 0 -36 32 -74 70 -38 39 -67 70 -64
70 2 0 36 -31 74 -70z m1765 65 c0 -6 -117 -93 -145 -107 -30 -16 -18 -6 65
56 79 58 80 59 80 51z m-2425 -35 c10 -11 16 -20 13 -20 -3 0 -13 9 -23 20
-10 11 -16 20 -13 20 3 0 13 -9 23 -20z m1288 13 c-7 -2 -19 -2 -25 0 -7 3 -2
5 12 5 14 0 19 -2 13 -5z m44 1 c-3 -3 -12 -4 -19 -1 -8 3 -5 6 6 6 11 1 17
-2 13 -5z m116 -1 c-13 -2 -33 -2 -45 0 -13 2 -3 4 22 4 25 0 35 -2 23 -4z
m83 -15 c11 -13 12 -17 3 -11 -8 7 -26 17 -40 22 -22 9 -22 10 -3 10 11 1 29
-9 40 -21z m-1164 -13 c3 -14 1 -25 -3 -25 -5 0 -9 11 -9 25 0 14 2 25 4 25 2
0 6 -11 8 -25z m1728 20 c0 -2 -10 -9 -22 -15 -22 -11 -22 -10 -4 4 21 17 26
19 26 11z m-627 -22 c-7 -2 -19 -2 -25 0 -7 3 -2 5 12 5 14 0 19 -2 13 -5z
m-1422 -20 c13 -16 12 -17 -3 -4 -17 13 -22 21 -14 21 2 0 10 -8 17 -17z
m1484 -23 c21 -22 37 -40 34 -40 -3 0 -23 18 -44 40 -21 22 -37 40 -34 40 3 0
23 -18 44 -40z m50 10 c10 -11 16 -20 13 -20 -3 0 -13 9 -23 20 -10 11 -16 20
-13 20 3 0 13 -9 23 -20z m525 16 c0 -2 -7 -7 -16 -10 -8 -3 -12 -2 -9 4 6 10
25 14 25 6z m-74 -41 c-11 -8 -25 -15 -30 -15 -6 1 0 7 14 15 32 19 40 18 16
0z m-183 -2 c-40 -2 -107 -2 -150 0 -43 1 -10 3 72 3 83 0 118 -2 78 -3z m392
-19 c-26 -20 -55 -36 -55 -30 0 5 63 46 70 46 3 -1 -4 -8 -15 -16z m-260 -4
c-3 -5 -14 -10 -23 -9 -14 0 -13 2 3 9 27 11 27 11 20 0z m-279 -18 c-60 -1
-113 1 -117 5 -5 4 45 6 109 3 l117 -5 -109 -3z m-1496 -28 c0 -2 -9 0 -20 6
-11 6 -20 13 -20 16 0 2 9 0 20 -6 11 -6 20 -13 20 -16z m1089 12 c-2 -2 -15
-9 -29 -15 -24 -11 -24 -11 -6 3 16 13 49 24 35 12z m881 -1 c0 -2 -10 -9 -22
-15 -22 -11 -22 -10 -4 4 21 17 26 19 26 11z m-1395 -25 c10 -11 16 -20 13
-20 -3 0 -13 9 -23 20 -10 11 -16 20 -13 20 3 0 13 -9 23 -20z m-525 -16 c0
-2 -9 0 -20 6 -11 6 -20 13 -20 16 0 2 9 0 20 -6 11 -6 20 -13 20 -16z m928 9
c-21 -2 -55 -2 -75 0 -21 2 -4 4 37 4 41 0 58 -2 38 -4z m150 -18 c-3 -3 -9 2
-12 12 -6 14 -5 15 5 6 7 -7 10 -15 7 -18z m792 20 c0 -2 -18 -14 -40 -25 -22
-11 -40 -18 -40 -15 0 2 17 13 38 24 42 23 42 23 42 16z m-1212 -12 c-16 -2
-40 -2 -55 0 -16 2 -3 4 27 4 30 0 43 -2 28 -4z m65 0 c-7 -2 -19 -2 -25 0 -7
3 -2 5 12 5 14 0 19 -2 13 -5z m376 -57 c-9 -8 -10 -7 -5 7 3 10 7 28 7 40 2
16 3 14 6 -7 3 -16 -1 -34 -8 -40z m-126 37 c-7 -2 -21 -2 -30 0 -10 3 -4 5
12 5 17 0 24 -2 18 -5z m-125 -10 c-32 -2 -84 -2 -115 0 -32 2 -6 3 57 3 63 0
89 -1 58 -3z m912 -17 c0 -2 -7 -7 -16 -10 -8 -3 -12 -2 -9 4 6 10 25 14 25 6z
m-1630 -16 c8 -5 11 -10 5 -10 -5 0 -17 5 -25 10 -8 5 -10 10 -5 10 6 0 17 -5
25 -10z m874 -6 c3 -8 2 -12 -4 -9 -6 3 -10 10 -10 16 0 14 7 11 14 -7z m76
-4 c0 -5 -5 -10 -11 -10 -5 0 -7 5 -4 10 3 6 8 10 11 10 2 0 4 -4 4 -10z m540
-40 c-8 -5 -19 -10 -25 -10 -5 0 -3 5 5 10 8 5 20 10 25 10 6 0 3 -5 -5 -10z
m-1235 -50 c13 -6 15 -9 5 -9 -8 0 -22 4 -30 9 -18 12 -2 12 25 0z m1100 0
c-11 -5 -27 -9 -35 -9 -9 0 -8 4 5 9 11 5 27 9 35 9 9 0 8 -4 -5 -9z m-88 -26
c-3 -3 -12 -4 -19 -1 -8 3 -5 6 6 6 11 1 17 -2 13 -5z m-40 -10 c-3 -3 -12 -4
-19 -1 -8 3 -5 6 6 6 11 1 17 -2 13 -5z m-44 -11 c-7 -2 -19 -2 -25 0 -7 3 -2
5 12 5 14 0 19 -2 13 -5z m-700 -10 c-7 -2 -19 -2 -25 0 -7 3 -2 5 12 5 14 0
19 -2 13 -5z m644 1 c-3 -3 -12 -4 -19 -1 -8 3 -5 6 6 6 11 1 17 -2 13 -5z
m-574 -11 c-7 -2 -21 -2 -30 0 -10 3 -4 5 12 5 17 0 24 -2 18 -5z m510 0 c-7
-2 -19 -2 -25 0 -7 3 -2 5 12 5 14 0 19 -2 13 -5z m-70 -10 c-7 -2 -21 -2 -30
0 -10 3 -4 5 12 5 17 0 24 -2 18 -5z m-205 -10 c-16 -2 -40 -2 -55 0 -16 2 -3
4 27 4 30 0 43 -2 28 -4z"/>
<path d="M2996 6634 c-19 -19 -20 -36 -4 -52 24 -24 78 -8 78 24 0 17 -28 44
-45 44 -7 0 -21 -7 -29 -16z"/>
<path d="M3751 4262 c-1 -8 -6 -10 -13 -6 -10 5 -10 4 -1 -6 15 -16 28 -8 20
12 -4 11 -6 11 -6 0z"/>
<path d="M2641 6276 c-29 -34 10 -93 46 -70 29 18 39 42 27 62 -14 22 -57 27
-73 8z"/>
<path d="M2462 5241 c-8 -4 -12 -21 -10 -37 2 -25 7 -29 32 -29 36 0 56 27 40
53 -13 19 -43 26 -62 13z"/>
<path d="M7628 5862 c-37 -119 -70 -225 -73 -234 -7 -17 4 -18 144 -18 83 0
151 3 151 6 0 8 -151 464 -153 464 -1 0 -32 -98 -69 -218z"/>
<path d="M2387 5892 c-22 -24 -21 -45 1 -65 37 -34 82 -15 82 33 0 49 -51 68
-83 32z"/>
<path d="M2243 4614 c-10 -27 35 -79 53 -61 10 9 0 18 -23 21 -12 2 -18 11
-17 30 1 30 -4 34 -13 10z"/>
<path d="M2296 4543 c-11 -12 487 -493 500 -482 11 9 -66 89 -365 375 -120
116 -123 118 -135 107z"/>
<path d="M2752 5168 c-25 -25 -6 -68 30 -68 9 0 22 9 28 19 13 25 13 27 -6 45
-19 19 -36 20 -52 4z"/>
<path d="M2861 4454 c6 -7 16 -11 22 -7 6 4 8 0 5 -9 -7 -18 74 -103 87 -91 4
5 5 2 1 -5 -5 -8 19 -44 66 -99 52 -61 74 -81 76 -69 2 10 -22 47 -59 89 -80
92 -119 131 -119 121 0 -4 -6 1 -14 11 -8 11 -12 24 -9 30 4 5 3 7 -2 3 -5 -5
-13 2 -19 14 -6 12 -19 22 -29 24 -15 2 -16 0 -6 -12z"/>
<path d="M2438 4891 c-19 -16 -21 -23 -13 -47 8 -23 17 -30 43 -32 26 -3 34 1
44 23 22 49 -31 90 -74 56z"/>
<path d="M2530 4532 c8 -4 16 -14 18 -22 4 -15 49 -64 279 -300 95 -97 144
-142 148 -132 3 7 -5 26 -17 42 -35 42 -342 347 -333 330 4 -8 -3 -4 -16 10
-13 13 -23 27 -22 30 4 10 -41 50 -56 49 -14 0 -14 -1 -1 -7z m41 -29 c13 -16
12 -17 -3 -4 -10 7 -18 15 -18 17 0 8 8 3 21 -13z m90 -90 c13 -16 12 -17 -3
-4 -17 13 -22 21 -14 21 2 0 10 -8 17 -17z"/>
<path d="M4240 4351 c0 -6 4 -13 10 -16 6 -3 7 1 4 9 -7 18 -14 21 -14 7z"/>
<path d="M4208 4257 c-3 -51 -3 -95 -1 -99 2 -5 26 -8 54 -8 l49 0 0 38 c0 63
-12 142 -22 142 -5 0 -7 -4 -4 -9 3 -5 -3 -11 -14 -14 -11 -3 -18 -1 -14 4 3
5 1 9 -5 9 -5 0 -16 7 -24 15 -13 12 -15 2 -19 -78z"/>
<path d="M4661 4244 l-2 -95 50 2 51 3 0 95 c0 62 -4 91 -9 81 -6 -8 -7 -18
-5 -22 6 -9 -22 -10 -53 -2 -13 4 -21 10 -18 14 3 5 1 11 -4 14 -4 3 -9 -37
-10 -90z m84 36 c-3 -5 -12 -7 -20 -3 -21 7 -19 13 6 13 11 0 18 -4 14 -10z"/>
<path d="M6001 4344 c0 -11 3 -14 6 -6 3 7 2 16 -1 19 -3 4 -6 -2 -5 -13z"/>
<path d="M6510 4340 c0 -5 -6 -10 -13 -10 -8 0 -19 -11 -25 -25 -16 -36 -63
-55 -150 -62 -94 -7 -155 8 -194 47 -15 16 -28 24 -28 18 0 -6 -6 -8 -14 -5
-7 3 -19 0 -26 -6 -10 -9 -12 -9 -8 3 4 10 -2 15 -18 16 -55 4 1 -102 73 -138
44 -21 61 -23 199 -23 150 0 151 0 199 30 49 31 78 72 90 133 l7 32 -46 0
c-25 0 -46 -4 -46 -10z"/>
<path d="M6890 4234 l0 -85 53 3 c28 2 51 6 50 11 -2 4 -3 42 -3 85 0 43 -4
71 -8 64 -5 -7 -16 -10 -25 -6 -10 3 -17 1 -17 -6 0 -7 -6 -6 -16 4 -28 29
-34 17 -34 -70z"/>
<path d="M8241 4357 c-1 -45 -2 -47 -21 -37 -11 6 -17 16 -14 22 5 8 1 9 -11
4 -11 -4 -22 -2 -27 6 -5 9 -8 6 -8 -10 0 -19 4 -22 20 -17 12 4 20 2 20 -5 0
-6 -4 -9 -9 -5 -5 3 -24 -8 -43 -25 -42 -38 -83 -50 -179 -50 -100 0 -133 7
-164 36 -19 18 -38 24 -70 24 l-44 0 10 -32 c13 -47 57 -87 113 -103 67 -20
246 -20 314 0 98 30 146 110 123 205 l-9 35 -1 -48z"/>
<path d="M5322 4573 c-28 -70 -54 -136 -58 -146 -6 -17 1 -18 110 -16 67 2
116 7 116 12 0 14 -100 260 -109 270 -5 4 -31 -50 -59 -120z"/>
<path d="M5440 4343 c0 -5 -46 -9 -101 -10 -56 -1 -104 -5 -107 -8 -3 -3 57
-4 134 -4 76 1 130 4 119 6 -11 3 -26 10 -32 15 -7 6 -13 6 -13 1z"/>
<path d="M5160 4304 c0 -8 5 -12 10 -9 6 4 8 11 5 16 -9 14 -15 11 -15 -7z"/>
<path d="M5190 4308 c0 -7 -4 -20 -10 -28 -8 -12 -12 -12 -37 0 -15 8 -30 18
-33 22 -3 3 -19 -29 -36 -72 l-31 -78 48 0 c37 -1 51 3 59 17 21 40 57 151 49
151 -5 0 -9 -6 -9 -12z m-68 -35 c-6 -2 -10 -9 -7 -13 3 -5 1 -11 -5 -15 -5
-3 -10 3 -10 14 0 14 6 21 18 20 10 0 12 -3 4 -6z"/>
<path d="M5601 4313 c5 -27 -2 -45 -16 -39 -19 7 -19 2 2 -54 23 -64 30 -70
79 -70 55 0 55 9 8 105 -19 39 -32 63 -30 54 2 -9 -2 -16 -9 -16 -8 0 -13 5
-12 10 1 5 -4 12 -11 14 -7 3 -12 1 -11 -4z"/>
<path d="M7269 4336 c9 -10 8 -15 -4 -20 -8 -3 -15 -1 -15 5 0 6 -7 9 -15 6
-8 -4 -17 -2 -20 3 -3 5 -14 8 -24 7 -16 -1 -12 -9 23 -51 22 -28 59 -70 80
-93 38 -42 41 -43 98 -42 32 1 58 6 58 12 0 12 -171 187 -183 187 -5 0 -4 -6
2 -14z"/>
<path d="M2964 4729 c-17 -19 -17 -23 -3 -47 21 -38 62 -41 85 -8 15 24 15 28
0 51 -20 31 -56 33 -82 4z"/>
<path d="M3254 4400 c45 -52 62 -63 79 -56 7 2 4 5 -6 5 -11 1 -15 6 -11 13 4
6 3 8 -4 4 -6 -3 -19 4 -29 16 -10 13 -30 32 -43 43 -14 11 -7 0 14 -25z"/>
</g>
</svg>
